<svg width="111" height="50" viewBox="0 0 111 50" fill="none" xmlns="http://www.w3.org/2000/svg">
<path d="M14.6036 37.1913C14.608 37.2561 14.5965 37.3209 14.5702 37.3801C14.5439 37.4394 14.5035 37.4914 14.4525 37.5315C14.3276 37.6169 14.1859 37.6748 14.0368 37.7012C13.7814 37.7453 13.5222 37.7644 13.263 37.7581C13.0007 37.7629 12.7386 37.7439 12.4798 37.7012C12.3262 37.681 12.1801 37.6226 12.0548 37.5315C12.0088 37.4882 11.9731 37.4352 11.9502 37.3764C11.9273 37.3175 11.9178 37.2543 11.9224 37.1913V35.4926C11.2164 36.2581 10.374 36.8853 9.43837 37.3424C8.53533 37.7809 7.54393 38.0069 6.54006 38.0033C5.71891 38.0137 4.90117 37.8957 4.11641 37.6538C3.43771 37.4471 2.80813 37.1045 2.26595 36.6469C1.75256 36.2018 1.34599 35.6467 1.07642 35.023C0.794018 34.3815 0.652579 33.6515 0.6521 32.8331C0.6521 31.877 0.847238 31.0464 1.23752 30.3411C1.64023 29.6234 2.21822 29.0194 2.91753 28.5856C3.64726 28.12 4.54097 27.7707 5.59865 27.5377C6.65633 27.3047 7.84562 27.1884 9.16652 27.1889H11.5075V25.8642C11.5161 25.2786 11.4462 24.6944 11.2996 24.1274C11.1809 23.6608 10.9509 23.2299 10.6293 22.8717C10.2988 22.5241 9.88669 22.2646 9.43046 22.1165C8.93998 21.9468 8.33586 21.8619 7.61812 21.8619C6.92069 21.8535 6.22571 21.9461 5.55478 22.1367C5.00511 22.2962 4.46867 22.4982 3.95028 22.7408C3.49096 22.9618 3.10739 23.1632 2.79958 23.3449C2.49177 23.5266 2.25948 23.6175 2.10269 23.6175C2.00911 23.6195 1.9171 23.5932 1.83875 23.5419C1.75569 23.4831 1.68769 23.4055 1.64026 23.3154C1.57777 23.1942 1.53712 23.063 1.52015 22.9278C1.46191 22.5073 1.47162 22.0801 1.54892 21.6627C1.60389 21.4625 1.71523 21.2822 1.86968 21.1435C2.03941 20.9804 2.33211 20.7887 2.7478 20.5681C3.20902 20.3285 3.68884 20.1264 4.18257 19.964C4.76256 19.7713 5.35545 19.6199 5.9568 19.5109C6.59718 19.3915 7.24719 19.3313 7.8986 19.3311C9.11929 19.3311 10.1576 19.4697 11.0134 19.7468C11.8692 20.0239 12.5615 20.4298 13.0904 20.9644C13.6325 21.523 14.0279 22.2072 14.2411 22.9558C14.4808 23.7488 14.6007 24.6739 14.6007 25.7311L14.6036 37.1913ZM11.5075 29.4321H8.84648C8.09761 29.4207 7.3498 29.493 6.61701 29.6478C5.98797 29.7917 5.4656 30.0057 5.04991 30.29C4.66103 30.544 4.34539 30.8954 4.13439 31.3091C3.93296 31.736 3.83278 32.2036 3.84168 32.6756C3.84168 33.5573 4.12168 34.259 4.68169 34.7806C5.24169 35.3023 6.02536 35.5636 7.0327 35.5645C7.83379 35.5692 8.62072 35.3535 9.30748 34.941C10.0056 34.5263 10.7387 33.8908 11.5067 33.0345L11.5075 29.4321Z" fill="#D7B8A6"/>
<path d="M23.4388 37.4186C23.4417 37.5094 23.4152 37.5987 23.3632 37.6732C23.2985 37.7533 23.214 37.815 23.118 37.8523C22.9667 37.9117 22.808 37.95 22.6462 37.9659C22.389 37.9938 22.1304 38.0063 21.8717 38.0033C21.6194 38.006 21.3672 37.9935 21.1165 37.9659C20.9519 37.9492 20.7901 37.911 20.6354 37.8523C20.5374 37.8188 20.4518 37.7564 20.3901 37.6732C20.3437 37.5966 20.3207 37.5081 20.324 37.4186V12.1961C20.3216 12.1035 20.3445 12.012 20.3901 11.9314C20.4492 11.8436 20.5353 11.7775 20.6354 11.743C20.79 11.6839 20.9518 11.6457 21.1165 11.6294C21.3672 11.6017 21.6194 11.5892 21.8717 11.592C22.1304 11.5889 22.389 11.6014 22.6462 11.6294C22.808 11.6449 22.9668 11.6832 23.118 11.743C23.2159 11.7813 23.301 11.8467 23.3632 11.9314C23.4144 12.01 23.4408 12.1023 23.4388 12.1961V37.4186Z" fill="#D7B8A6"/>
<path d="M94.4459 37.1913C94.4502 37.256 94.4386 37.3208 94.4123 37.38C94.386 37.4393 94.3457 37.4913 94.2949 37.5315C94.1699 37.6168 94.0282 37.6747 93.8792 37.7012C93.6237 37.7453 93.3646 37.7643 93.1054 37.7581C92.8429 37.7629 92.5805 37.7439 92.3215 37.7012C92.1681 37.6808 92.0223 37.6225 91.8972 37.5315C91.8511 37.4883 91.8153 37.4353 91.7924 37.3764C91.7695 37.3176 91.7601 37.2543 91.7648 37.1913V35.4926C91.0592 36.2579 90.2173 36.8851 89.2822 37.3424C88.3792 37.7809 87.3878 38.007 86.3839 38.0033C85.562 38.0138 84.7436 37.8959 83.9581 37.6538C83.2796 37.4471 82.6503 37.1045 82.1083 36.6469C81.595 36.2018 81.1884 35.6467 80.9188 35.023C80.6355 34.3815 80.4938 33.6515 80.4938 32.8331C80.4938 31.877 80.6889 31.0464 81.0792 30.3411C81.4819 29.6234 82.0599 29.0194 82.7592 28.5856C83.4889 28.12 84.3826 27.7707 85.4403 27.5377C86.498 27.3047 87.6873 27.1884 89.0082 27.1889H91.3491V25.8642C91.3576 25.2786 91.288 24.6945 91.142 24.1274C91.023 23.6609 90.793 23.2301 90.4717 22.8717C90.141 22.5243 89.729 22.2647 89.2729 22.1165C88.7819 21.9468 88.1778 21.8619 87.4605 21.8619C86.7617 21.8527 86.0653 21.9447 85.3929 22.1352C84.8432 22.2949 84.3068 22.4969 83.7884 22.7393C83.329 22.9604 82.9455 23.1617 82.6377 23.3434C82.3299 23.5252 82.1 23.6165 81.948 23.6175C81.8544 23.6195 81.7624 23.5932 81.684 23.5419C81.601 23.4831 81.533 23.4055 81.4855 23.3154C81.4204 23.1947 81.3768 23.0635 81.3568 22.9278C81.3301 22.756 81.3173 22.5823 81.3187 22.4085C81.3127 22.1582 81.3349 21.908 81.3848 21.6627C81.4398 21.4625 81.5511 21.2822 81.7056 21.1435C81.8758 20.9804 82.1685 20.7887 82.5837 20.5681C83.0461 20.3283 83.5271 20.1263 84.0221 19.964C84.6023 19.7712 85.1954 19.6198 85.797 19.5109C86.4374 19.3915 87.0874 19.3313 87.7388 19.3311C88.96 19.3311 89.9985 19.4697 90.8543 19.7468C91.7102 20.0239 92.4039 20.43 92.9357 20.9651C93.4775 21.5239 93.8728 22.208 94.0864 22.9565C94.3261 23.7495 94.4459 24.6747 94.4459 25.7319V37.1913ZM91.3463 29.4321H88.6853C87.9364 29.4207 87.1886 29.4931 86.4558 29.6478C85.8268 29.7917 85.3046 30.0057 84.8894 30.29C84.5003 30.5439 84.1844 30.8953 83.9732 31.3091C83.772 31.7361 83.6721 32.2037 83.6812 32.6756C83.6812 33.5573 83.9612 34.259 84.5212 34.7806C85.0812 35.3023 85.8646 35.5636 86.8715 35.5645C87.6726 35.5692 88.4595 35.3535 89.1463 34.941C89.8449 34.5263 90.5779 33.8908 91.3455 33.0345L91.3463 29.4321Z" fill="#D7B8A6"/>
<path d="M110.999 36.6821C111.003 36.8881 110.984 37.0938 110.943 37.2956C110.914 37.4384 110.869 37.5775 110.81 37.7106C110.769 37.8076 110.696 37.8876 110.603 37.9371C110.515 37.9814 110.418 38.004 110.32 38.0033H99.8607C99.7403 38.0069 99.6206 37.9852 99.5091 37.9398C99.3977 37.8943 99.2969 37.826 99.2134 37.7393C99.0427 37.5629 98.9576 37.2671 98.9581 36.8519V36.2096C98.9564 36.0515 98.9692 35.8936 98.9962 35.7379C99.0221 35.5966 99.0598 35.4578 99.1091 35.3229C99.1662 35.1696 99.2357 35.0212 99.317 34.8791C99.4047 34.7219 99.5116 34.5426 99.6377 34.3412L107.133 22.6739H99.8607C99.6593 22.6739 99.5011 22.5696 99.3795 22.3625C99.258 22.1553 99.1997 21.818 99.1997 21.352C99.198 21.1531 99.2108 20.9543 99.2379 20.7572C99.2553 20.613 99.2968 20.4727 99.3608 20.3423C99.4054 20.2475 99.4776 20.1685 99.568 20.1157C99.6585 20.0698 99.7591 20.047 99.8607 20.0496H109.602C109.727 20.0473 109.852 20.0665 109.97 20.1064C110.077 20.1436 110.171 20.2086 110.244 20.2948C110.326 20.395 110.387 20.5107 110.423 20.635C110.472 20.8069 110.494 20.9851 110.489 21.1636V21.7677C110.491 21.9319 110.478 22.096 110.452 22.2582C110.427 22.409 110.389 22.5574 110.338 22.7019C110.282 22.8614 110.212 23.0161 110.131 23.1644C110.043 23.3283 109.936 23.511 109.81 23.7124L102.353 35.379H110.32C110.415 35.378 110.509 35.4007 110.594 35.4451C110.682 35.496 110.754 35.5708 110.801 35.6609C110.868 35.7886 110.917 35.9255 110.945 36.0672C110.985 36.2696 111.004 36.4758 110.999 36.6821Z" fill="#D7B8A6"/>
<path d="M42.0893 16.4659V37.5862C42.0893 37.6625 42.059 37.7356 42.0051 37.7896C41.9511 37.8435 41.878 37.8738 41.8017 37.8738H38.7811C38.7048 37.8738 38.6316 37.8435 38.5777 37.7896C38.5237 37.7356 38.4934 37.6625 38.4934 37.5862V12.5586C38.4934 12.4986 38.5122 12.4402 38.5471 12.3914C38.582 12.3426 38.6312 12.306 38.6879 12.2866C38.7447 12.2671 38.8061 12.2659 38.8635 12.2831C38.9209 12.3003 38.9716 12.335 39.0083 12.3824L42.0289 16.2861C42.0688 16.3375 42.0901 16.4008 42.0893 16.4659Z" fill="#D7B8A6"/>
<path d="M62.4602 18.8514V22.1446C62.4604 22.2083 62.4394 22.2703 62.4005 22.3208L54.7189 32.2347C54.6798 32.2851 54.6586 32.3471 54.6585 32.4109V37.5891C54.6585 37.6654 54.6282 37.7385 54.5743 37.7925C54.5203 37.8464 54.4472 37.8767 54.3709 37.8767H51.4538C51.3775 37.8767 51.3044 37.8464 51.2504 37.7925C51.1965 37.7385 51.1662 37.6654 51.1662 37.5891V32.4411C51.1661 32.3773 51.1449 32.3153 51.1058 32.2649L43.4242 22.3524C43.385 22.302 43.3638 22.24 43.3637 22.1762V18.8809C43.3638 18.821 43.3825 18.7625 43.4174 18.7137C43.4523 18.665 43.5016 18.6283 43.5583 18.6089C43.615 18.5895 43.6764 18.5883 43.7338 18.6055C43.7913 18.6227 43.8419 18.6574 43.8787 18.7047L51.1662 28.1102L52.6729 30.0556C52.6997 30.0903 52.7342 30.1183 52.7736 30.1376C52.813 30.1569 52.8563 30.1669 52.9001 30.1669C52.944 30.1669 52.9873 30.1569 53.0266 30.1376C53.066 30.1183 53.1005 30.0903 53.1274 30.0556L54.6585 28.08L61.9453 18.6752C61.9821 18.6279 62.0327 18.5932 62.0901 18.576C62.1476 18.5588 62.209 18.56 62.2657 18.5794C62.3224 18.5988 62.3717 18.6355 62.4066 18.6843C62.4414 18.733 62.4602 18.7915 62.4602 18.8514Z" fill="#D7B8A6"/>
<path d="M63.7368 16.4659V37.5862C63.7368 37.6625 63.7671 37.7356 63.821 37.7896C63.875 37.8435 63.9481 37.8739 64.0244 37.8739H67.045C67.1213 37.8739 67.1945 37.8435 67.2484 37.7896C67.3024 37.7356 67.3327 37.6625 67.3327 37.5862V12.5586C67.3328 12.4984 67.3141 12.4398 67.2792 12.3908C67.2443 12.3418 67.1949 12.305 67.138 12.2856C67.0811 12.2662 67.0195 12.265 66.962 12.2824C66.9044 12.2997 66.8537 12.3347 66.817 12.3824L63.7964 16.2861C63.7568 16.3376 63.7358 16.4009 63.7368 16.4659Z" fill="#D7B8A6"/>
<path d="M52.9123 0.32309C39.3917 0.32309 28.437 11.2806 28.437 24.7976C28.437 38.3147 39.3953 49.2722 52.9123 49.2722C66.4294 49.2722 77.3869 38.3183 77.3869 24.7976C77.3869 11.277 66.4294 0.32309 52.9123 0.32309ZM52.9123 47.1053C39.8598 47.1053 29.2785 37.118 29.2785 24.7976C29.2785 12.4773 39.8598 2.48999 52.9123 2.48999C65.9648 2.48999 76.5454 12.4773 76.5454 24.7976C76.5454 37.118 65.9662 47.1053 52.9123 47.1053Z" fill="#D7B8A6"/>
</svg>
