<svg width="210" height="30" viewBox="0 0 210 30" fill="none" xmlns="http://www.w3.org/2000/svg">
<path fill-rule="evenodd" clip-rule="evenodd" d="M0 9.42359C0 19.0031 13.8424 18.4848 13.8424 25.2047C13.8602 25.6854 13.7785 26.1647 13.6023 26.6125C13.4261 27.0603 13.1593 27.4669 12.8184 27.8071C12.4776 28.1473 12.0702 28.4136 11.6216 28.5895C11.1729 28.7654 10.6928 28.847 10.2111 28.8292C5.12735 28.8292 2.63993 24.1499 2.63993 22.0079C2.59659 21.1161 2.48368 20.229 2.30223 19.3547H0.726254C0.904186 21.0909 1.08938 22.8342 1.08938 24.6465C1.08938 26.3391 0.918711 28.0862 0.748042 29.7788H2.31675L2.42932 28.1405C3.95445 28.6479 6.38377 30.0035 10.8466 30.0035C19.0969 30.0035 22.8298 26.3391 22.8298 20.6414C22.8298 10.0977 8.48265 11.4497 8.48265 4.74073C8.48265 2.92848 9.27063 1.18872 12.5497 1.18872C18.0837 1.18872 19.5544 6.98793 19.5544 8.80018C19.5394 8.89831 19.56 8.99856 19.6125 9.08289C19.667 9.70268 19.7251 10.3225 19.8376 10.9423H21.4753C21.2252 9.20345 21.087 7.45043 21.0614 5.69398C21.0614 4.40003 21.1739 3.15683 21.2865 1.85926V1.7469L21.4572 0.507317H19.8304L19.7723 1.12711C17.2697 0.341164 14.6572 -0.039401 12.034 -0.000113446C3.55864 -0.000113446 0 3.66426 0 9.42359ZM210 13.9905V13.3634C209.321 5.41489 205.308 0.282598 197.287 -0.000113446H196.561C187.737 0.394957 182.261 6.08905 182.261 14.9981C182.261 24.0774 188.024 29.7752 197.287 29.7752C206.779 29.7752 209.15 21.5403 209.15 21.5403L208.359 21.022C208.359 21.022 205.479 27.6186 198.87 27.6186C194.066 27.6186 193.274 25.1394 193.274 14.9872V13.9723L210 13.9905ZM197.004 1.30471C199.379 1.47506 200.112 3.61714 200.225 12.6385H193.274C193.445 3.62439 194.462 1.46781 197.004 1.29746V1.30471ZM177.758 27.7309V9.85853C177.758 3.38155 174.65 -0.0581055 169.283 -0.0581055C164.311 -0.0581055 160.931 2.87774 159.115 5.24454V0.224606H158.098C155.106 1.31196 152.056 1.52218 149.06 1.52218C148.043 1.52218 146.972 1.52218 145.955 1.46781V2.91761C146.721 3.03025 147.494 3.08719 148.268 3.08796V27.7817L146.01 27.9484V29.4272C151.16 28.9742 156.34 28.9742 161.49 29.4272V27.9484C160.698 27.8941 159.907 27.7817 159.119 27.7817V6.36089C160.019 5.41489 161.661 4.00496 163.919 4.00496C166.011 4.00496 166.857 5.3569 166.857 7.09666V27.7817L164.711 27.9484V29.4345C169.861 28.985 175.041 28.985 180.191 29.4345V27.9484C179.399 27.8941 178.55 27.7817 177.762 27.7237L177.758 27.7309ZM129.175 29.7498C138.253 29.7498 144.034 24.0593 144.034 14.9872C144.034 5.8607 138.272 -0.000113446 129.175 -0.000113446C120.442 -0.000113446 114.748 5.33515 114.24 13.7512H104.552V8.46672H101.676V13.7512H92.0309V9.85853C92.0309 3.38155 88.9226 -0.0581055 83.5555 -0.0581055C78.5843 -0.0581055 75.2036 2.87774 73.388 5.24454V0.224606H72.3712C69.3754 1.31196 66.3252 1.52218 63.3294 1.52218C62.3126 1.52218 61.2414 1.52218 60.2246 1.46781V2.91761C60.9917 3.03033 61.766 3.08726 62.5414 3.08796V27.7817L60.2791 27.9484V29.4272C65.4291 28.9742 70.6091 28.9742 75.7592 29.4272V27.9484C74.9676 27.8941 74.176 27.7817 73.388 27.7817V6.36089C74.2922 5.41489 75.9299 4.00496 78.1885 4.00496C80.2801 4.00496 81.1262 5.3569 81.1262 7.09666V27.7817L78.9801 27.9484V29.4345C84.1303 28.985 89.31 28.985 94.4602 29.4345V27.9484C93.6686 27.8941 92.8189 27.7817 92.0309 27.7237V16.6146H101.676V21.8991H104.544V16.6146H114.262C114.922 24.7335 120.576 29.7498 129.168 29.7498H129.175ZM133.685 14.7987C133.958 15.1688 134.201 15.5603 134.411 15.9694C134.651 16.7995 134.012 17.3649 133.642 18.039C133.314 18.6088 133.115 19.2436 133.061 19.8984C133.027 20.5933 133.11 21.289 133.304 21.9571C133.351 22.1311 133.395 22.3196 133.438 22.4899L133.573 22.9937C133.627 23.1749 133.671 23.3308 133.725 23.5048C133.851 23.859 133.95 24.2226 134.019 24.5921C134.019 24.8168 133.772 24.8495 133.623 24.8712C133.475 24.893 133.54 24.8712 133.453 24.9437C133.365 25.0075 133.274 25.0668 133.18 25.1213C132.514 25.5596 131.703 25.7221 130.918 25.5744L130.686 25.5309L130.029 25.3714L129.785 25.288C129.755 23.8412 129.652 22.3968 129.477 20.9604C129.4 20.2065 129.331 19.5649 129.317 19.1481C129.295 18.532 129.19 17.7636 129.048 16.7415C128.906 15.7193 128.729 14.3928 128.565 12.7183C128.271 9.73167 128.848 5.83171 128.983 4.91471L129.008 4.72624C129.006 4.70333 129.006 4.68028 129.008 4.65737C129.11 4.64725 129.212 4.64725 129.313 4.65737C129.978 4.68274 130.374 5.33878 130.486 5.87883C130.544 6.25057 130.554 6.62819 130.515 7.00242C130.515 7.21989 130.482 7.34675 130.472 7.56422C130.435 8.63345 130.413 9.04302 130.86 10.0144C131.131 10.612 131.435 11.194 131.772 11.7578L132.785 13.4105C132.839 13.4939 132.883 13.5555 132.937 13.6425C132.992 13.7295 133.032 13.802 133.082 13.8781L133.685 14.7987ZM128.965 19.1663C128.965 19.5867 129.048 20.2355 129.128 20.9785C129.33 22.5762 129.428 24.1852 129.422 25.7955C129.339 25.7998 129.255 25.7998 129.172 25.7955H128.808C128.656 25.7955 128.601 25.7955 128.471 25.7955C128.34 25.7955 128.213 25.7955 128.086 25.7955C127.606 25.7955 127.12 25.7955 126.633 25.7955L126.891 18.6552L128.002 18.6298C128.079 16.5131 127.559 14.9763 127.312 13.088C127.291 12.914 127.262 12.7436 127.251 12.5769C127.24 12.4102 127.251 12.2145 127.214 12.0477C127.185 11.7759 127.214 11.0872 127.189 10.9386C127.142 10.5327 127.305 8.48122 127.327 8.03903L127.479 6.63997C127.541 6.31377 127.596 5.69035 127.668 5.27354L127.882 3.93247C128.089 3.93247 128.761 4.14269 128.914 4.14994V4.17894C128.77 4.32059 128.675 4.50495 128.645 4.70449L128.62 4.88209C128.485 5.79184 127.893 9.73892 128.202 12.7726C128.369 14.4653 128.547 15.7701 128.689 16.8067C128.83 17.8433 128.932 18.5791 128.954 19.1771L128.965 19.1663ZM26.777 21.5403C26.777 27.0097 30.1105 29.7752 35.9859 29.7752C40.3434 29.7752 42.3152 27.8578 43.1068 26.5602C44.2361 28.7603 46.5529 29.7752 50.8451 29.7752C57.2869 29.7752 58.3037 24.5849 58.3037 24.5849H57.5774C57.4352 25.073 57.1381 25.5019 56.7308 25.8071C56.3235 26.1123 55.8281 26.2774 55.3188 26.2775C53.9643 26.2775 53.2272 25.317 53.2272 23.5157V10.3188C53.2272 4.51964 49.6685 -0.000113446 40.0093 -0.000113446C33.7272 -0.000113446 28.8105 2.59503 28.8105 6.82482C28.8105 9.24961 30.5063 11.2793 33.1063 11.2793C35.8189 11.2793 37.8524 9.24961 37.8524 6.82482C37.8524 5.37502 36.723 3.8926 34.9691 2.83787C34.9691 2.83787 35.8189 1.02562 38.9635 1.02562C42.0138 1.02562 42.3515 2.83787 42.3515 4.68999V14.661C40.6498 13.8357 38.7821 13.408 36.8901 13.4105C30.7169 13.4105 26.777 16.4551 26.777 21.5294V21.5403ZM37.0026 21.1452C37.0026 17.8832 38.644 15.5055 42.032 15.5055H42.3697V22.3304C42.3591 23.5295 42.5118 24.7244 42.8236 25.8825C42.5764 26.1211 42.284 26.3082 41.9635 26.4326C41.643 26.5571 41.3009 26.6165 40.9571 26.6074C38.4733 26.6074 37.0026 24.5776 37.0026 21.138V21.1452Z" fill="#C9A95C"/>
</svg>
