<svg width="1257" height="869" viewBox="0 0 1257 869" fill="none" xmlns="http://www.w3.org/2000/svg">
<path d="M682.666 8.63326C776.26 15.7281 870.072 24.8036 953.168 55.0113C1038.82 86.1502 1115.43 129.624 1168.33 185.167C1221.44 240.943 1250.13 306.546 1255.98 372.957C1261.68 437.77 1235.03 500.937 1201.46 561.757C1168.48 621.504 1126.23 678.863 1061.63 724.986C996.513 771.482 914.813 804.546 827.509 828.755C738 853.575 643.277 873.742 547.124 867.655C450.493 861.537 362.81 829.291 280.494 794.124C198.291 759.005 115.152 720.302 67.4169 662.728C43.8773 634.337 32.7143 603.116 26.3408 570.851C22.3268 550.531 20.2151 529.818 18.1063 509.134C16.8648 496.956 15.6242 484.789 13.997 472.717C12.5228 461.78 10.7568 450.81 8.9897 439.832C5.59418 418.739 2.19415 397.618 0.84996 376.647C-1.19287 344.776 1.51895 313.299 16.2166 282.91C30.9728 252.4 55.5002 225.372 84.5949 200.224C112.687 175.943 145.022 153.427 176.906 131.223C178.045 130.431 179.182 129.639 180.319 128.847C181.827 127.796 183.336 126.745 184.846 125.692C249.588 80.5753 316.182 34.1675 403.275 13.3247C486.312 -6.54717 575.922 0.385179 663.73 7.17815C670.052 7.66726 676.365 8.15565 682.666 8.63326Z" stroke="#D7B8A6" stroke-opacity="0.4" stroke-width="0.5"/>
</svg>
