<svg width="1295" height="1289" viewBox="0 0 1295 1289" fill="none" xmlns="http://www.w3.org/2000/svg">
<path d="M3.9728 682.077C-1.60048 586.047 -4.29071 489.313 25.9968 398.071C57.219 304.014 108.172 215.964 180.991 148.765C254.119 81.2805 345.93 35.9224 442.861 13.3771C537.475 -8.62916 635.188 2.38306 730.584 20.9464C824.311 39.1851 916.105 67.359 995.158 120.852C1074.85 174.775 1137.57 248.758 1188.2 330.601C1240.11 414.517 1286.05 504.837 1293.55 603.173C1301.08 701.999 1268.58 798.371 1230.84 890.083C1193.16 981.659 1150.36 1075.09 1073.66 1137.61C1035.82 1168.45 991.687 1187.53 945.202 1202.04C915.932 1211.18 885.746 1218.5 855.614 1225.82C837.879 1230.12 820.163 1234.42 802.663 1239.08C786.806 1243.3 770.945 1247.83 755.07 1252.36C724.556 1261.07 693.991 1269.79 663.303 1276.4C616.658 1286.45 569.763 1291.62 522.414 1284.43C428.983 1270.24 348.998 1214.65 271.253 1160.61C269.895 1159.66 268.538 1158.72 267.182 1157.78C265.377 1156.53 263.571 1155.27 261.763 1154.01C184.17 1100.12 104.365 1044.7 58.7317 962.224C15.2282 883.6 10.0987 791.64 5.07124 701.508C4.70933 695.02 4.34794 688.541 3.9728 682.077Z" stroke="#D7B8A6" stroke-opacity="0.4" stroke-width="0.5"/>
</svg>
