<svg width="532" height="538" viewBox="0 0 532 538" fill="none" xmlns="http://www.w3.org/2000/svg">
<path d="M288.905 5.43902C328.517 9.83147 368.191 15.448 403.328 34.1329C439.56 53.4002 471.965 80.299 494.338 114.667C516.807 149.182 528.949 189.787 531.423 230.9C533.837 271.021 522.56 310.122 508.352 347.772C494.394 384.76 476.518 420.256 449.195 448.794C421.652 477.561 387.095 498.02 350.161 513.002C312.282 528.366 272.226 540.838 231.575 537.073C190.723 533.29 153.642 513.346 118.805 491.575C84.0152 469.833 48.8561 445.888 28.6689 410.272C18.7134 392.708 13.9896 373.387 11.2922 353.412C9.59342 340.832 8.69981 328.011 7.80739 315.206C7.28191 307.667 6.75684 300.133 6.06805 292.658C5.44401 285.886 4.69656 279.094 3.94862 272.297C2.51159 259.239 1.07277 246.164 0.503898 233.182C-0.360664 213.451 0.787433 193.968 7.00546 175.161C19.2797 138.038 47.5243 109.267 75.0066 81.272C75.4827 80.787 75.9586 80.3022 76.4342 79.8177C77.0685 79.1714 77.7032 78.5244 78.3382 77.8771C105.749 49.9347 133.912 21.226 170.736 8.3348C205.84 -3.95413 243.726 0.332882 280.899 4.53912C283.572 4.84157 286.241 5.1436 288.905 5.43902Z" stroke="#D7B8A6" stroke-opacity="0.4" stroke-width="0.5"/>
</svg>
