<svg width="748" height="749" viewBox="0 0 748 749" fill="none" xmlns="http://www.w3.org/2000/svg">
<path d="M354.432 747.565L356.013 717.38" stroke="#303030" stroke-miterlimit="10"/>
<path d="M391.987 30.9974L393.568 0.813049" stroke="#303030" stroke-miterlimit="10"/>
<path d="M334.923 746.031L338.074 715.977" stroke="#303030" stroke-miterlimit="10"/>
<path d="M409.926 32.4003L413.077 2.34665" stroke="#303030" stroke-miterlimit="10"/>
<path d="M315.51 743.475L320.241 713.624" stroke="#303030" stroke-miterlimit="10"/>
<path d="M427.759 34.7542L432.49 4.90263" stroke="#303030" stroke-miterlimit="10"/>
<path d="M296.262 739.908L302.551 710.342" stroke="#303030" stroke-miterlimit="10"/>
<path d="M445.449 38.0353L451.738 8.46912" stroke="#303030" stroke-miterlimit="10"/>
<path d="M277.229 735.332L285.052 706.146" stroke="#303030" stroke-miterlimit="10"/>
<path d="M462.948 42.2319L470.771 13.0461" stroke="#303030" stroke-miterlimit="10"/>
<path d="M258.458 729.78L267.802 701.034" stroke="#303030" stroke-miterlimit="10"/>
<path d="M480.198 47.3439L489.542 18.5979" stroke="#303030" stroke-miterlimit="10"/>
<path d="M240.007 723.241L250.837 695.03" stroke="#303030" stroke-miterlimit="10"/>
<path d="M497.163 53.3474L507.993 25.1365" stroke="#303030" stroke-miterlimit="10"/>
<path d="M221.925 715.752L234.217 688.147" stroke="#303030" stroke-miterlimit="10"/>
<path d="M513.783 60.2308L526.075 32.6261" stroke="#303030" stroke-miterlimit="10"/>
<path d="M204.259 707.323L217.978 680.396" stroke="#303030" stroke-miterlimit="10"/>
<path d="M530.022 67.9819L543.741 41.0549" stroke="#303030" stroke-miterlimit="10"/>
<path d="M187.057 697.979L202.167 671.812" stroke="#303030" stroke-miterlimit="10"/>
<path d="M545.833 76.5653L560.943 50.3991" stroke="#303030" stroke-miterlimit="10"/>
<path d="M170.365 687.755L186.831 662.409" stroke="#303030" stroke-miterlimit="10"/>
<path d="M561.169 85.9689L577.635 60.6231" stroke="#303030" stroke-miterlimit="10"/>
<path d="M154.233 676.675L171.994 652.22" stroke="#303030" stroke-miterlimit="10"/>
<path d="M576.006 96.1572L593.767 71.703" stroke="#303030" stroke-miterlimit="10"/>
<path d="M138.707 664.751L157.728 641.271" stroke="#303030" stroke-miterlimit="10"/>
<path d="M590.272 107.106L609.293 83.6269" stroke="#303030" stroke-miterlimit="10"/>
<path d="M123.823 652.042L144.045 629.585" stroke="#303030" stroke-miterlimit="10"/>
<path d="M603.955 118.793L624.177 96.3355" stroke="#303030" stroke-miterlimit="10"/>
<path d="M109.616 638.573L130.991 617.197" stroke="#303030" stroke-miterlimit="10"/>
<path d="M617.009 131.18L638.384 109.805" stroke="#303030" stroke-miterlimit="10"/>
<path d="M96.1467 624.366L118.604 604.144" stroke="#303030" stroke-miterlimit="10"/>
<path d="M629.396 144.233L651.853 124.011" stroke="#303030" stroke-miterlimit="10"/>
<path d="M83.4381 609.482L106.917 590.461" stroke="#303030" stroke-miterlimit="10"/>
<path d="M641.082 157.917L664.562 138.896" stroke="#303030" stroke-miterlimit="10"/>
<path d="M71.5141 593.956L95.9684 576.195" stroke="#303030" stroke-miterlimit="10"/>
<path d="M652.032 172.183L676.486 154.422" stroke="#303030" stroke-miterlimit="10"/>
<path d="M60.4342 577.823L85.7801 561.358" stroke="#303030" stroke-miterlimit="10"/>
<path d="M662.22 187.019L687.566 170.554" stroke="#303030" stroke-miterlimit="10"/>
<path d="M50.2103 561.132L76.3765 546.022" stroke="#303030" stroke-miterlimit="10"/>
<path d="M671.624 202.355L697.79 187.245" stroke="#303030" stroke-miterlimit="10"/>
<path d="M40.8661 543.93L67.7931 530.211" stroke="#303030" stroke-miterlimit="10"/>
<path d="M680.207 218.167L707.134 204.448" stroke="#303030" stroke-miterlimit="10"/>
<path d="M32.4373 526.264L60.0419 513.971" stroke="#303030" stroke-miterlimit="10"/>
<path d="M687.958 234.406L715.563 222.114" stroke="#303030" stroke-miterlimit="10"/>
<path d="M24.9477 508.182L53.1586 497.352" stroke="#303030" stroke-miterlimit="10"/>
<path d="M694.841 251.026L723.052 240.196" stroke="#303030" stroke-miterlimit="10"/>
<path d="M18.4091 489.731L47.155 480.387" stroke="#303030" stroke-miterlimit="10"/>
<path d="M700.845 267.991L729.591 258.646" stroke="#303030" stroke-miterlimit="10"/>
<path d="M12.8573 470.96L42.0431 463.137" stroke="#303030" stroke-miterlimit="10"/>
<path d="M705.957 285.241L735.143 277.418" stroke="#303030" stroke-miterlimit="10"/>
<path d="M8.2803 451.926L37.8465 445.637" stroke="#303030" stroke-miterlimit="10"/>
<path d="M710.154 302.74L739.72 296.451" stroke="#303030" stroke-miterlimit="10"/>
<path d="M4.71381 432.679L34.5653 427.948" stroke="#303030" stroke-miterlimit="10"/>
<path d="M713.435 320.43L743.286 315.698" stroke="#303030" stroke-miterlimit="10"/>
<path d="M2.15782 413.266L32.2114 410.115" stroke="#303030" stroke-miterlimit="10"/>
<path d="M715.789 338.262L745.842 335.112" stroke="#303030" stroke-miterlimit="10"/>
<path d="M0.624229 393.757L30.8086 392.176" stroke="#303030" stroke-miterlimit="10"/>
<path d="M717.191 356.202L747.376 354.621" stroke="#303030" stroke-miterlimit="10"/>
<path d="M0.113031 374.189H30.3331" stroke="#303030" stroke-miterlimit="10"/>
<path d="M717.667 374.189H747.887" stroke="#303030" stroke-miterlimit="10"/>
<path d="M0.624229 354.621L30.8086 356.202" stroke="#303030" stroke-miterlimit="10"/>
<path d="M717.191 392.176L747.376 393.757" stroke="#303030" stroke-miterlimit="10"/>
<path d="M2.15782 335.112L32.2114 338.262" stroke="#303030" stroke-miterlimit="10"/>
<path d="M715.789 410.115L745.842 413.266" stroke="#303030" stroke-miterlimit="10"/>
<path d="M4.71381 315.698L34.5653 320.43" stroke="#303030" stroke-miterlimit="10"/>
<path d="M713.435 427.948L743.286 432.679" stroke="#303030" stroke-miterlimit="10"/>
<path d="M8.2803 296.451L37.8465 302.74" stroke="#303030" stroke-miterlimit="10"/>
<path d="M710.154 445.637L739.72 451.926" stroke="#303030" stroke-miterlimit="10"/>
<path d="M12.8573 277.418L42.0431 285.241" stroke="#303030" stroke-miterlimit="10"/>
<path d="M705.957 463.137L735.143 470.96" stroke="#303030" stroke-miterlimit="10"/>
<path d="M18.4091 258.646L47.155 267.991" stroke="#303030" stroke-miterlimit="10"/>
<path d="M700.845 480.387L729.591 489.731" stroke="#303030" stroke-miterlimit="10"/>
<path d="M24.9477 240.196L53.1586 251.026" stroke="#303030" stroke-miterlimit="10"/>
<path d="M694.841 497.352L723.052 508.182" stroke="#303030" stroke-miterlimit="10"/>
<path d="M32.4373 222.114L60.0419 234.406" stroke="#303030" stroke-miterlimit="10"/>
<path d="M687.958 513.971L715.563 526.264" stroke="#303030" stroke-miterlimit="10"/>
<path d="M40.8661 204.448L67.7931 218.167" stroke="#303030" stroke-miterlimit="10"/>
<path d="M680.207 530.211L707.134 543.93" stroke="#303030" stroke-miterlimit="10"/>
<path d="M50.2103 187.245L76.3765 202.355" stroke="#303030" stroke-miterlimit="10"/>
<path d="M671.624 546.022L697.79 561.132" stroke="#303030" stroke-miterlimit="10"/>
<path d="M60.4342 170.554L85.7801 187.019" stroke="#303030" stroke-miterlimit="10"/>
<path d="M662.22 561.358L687.566 577.823" stroke="#303030" stroke-miterlimit="10"/>
<path d="M71.5141 154.422L95.9684 172.183" stroke="#303030" stroke-miterlimit="10"/>
<path d="M652.032 576.195L676.486 593.956" stroke="#303030" stroke-miterlimit="10"/>
<path d="M83.4381 138.896L106.917 157.917" stroke="#303030" stroke-miterlimit="10"/>
<path d="M641.082 590.461L664.562 609.482" stroke="#303030" stroke-miterlimit="10"/>
<path d="M96.1467 124.011L118.604 144.233" stroke="#303030" stroke-miterlimit="10"/>
<path d="M629.396 604.144L651.853 624.366" stroke="#303030" stroke-miterlimit="10"/>
<path d="M109.616 109.805L130.991 131.18" stroke="#303030" stroke-miterlimit="10"/>
<path d="M617.009 617.197L638.384 638.573" stroke="#303030" stroke-miterlimit="10"/>
<path d="M123.823 96.3355L144.045 118.793" stroke="#303030" stroke-miterlimit="10"/>
<path d="M603.955 629.585L624.177 652.042" stroke="#303030" stroke-miterlimit="10"/>
<path d="M138.707 83.6269L157.728 107.106" stroke="#303030" stroke-miterlimit="10"/>
<path d="M590.272 641.271L609.293 664.751" stroke="#303030" stroke-miterlimit="10"/>
<path d="M154.233 71.703L171.994 96.1572" stroke="#303030" stroke-miterlimit="10"/>
<path d="M576.006 652.22L593.767 676.675" stroke="#303030" stroke-miterlimit="10"/>
<path d="M170.365 60.6231L186.831 85.9689" stroke="#303030" stroke-miterlimit="10"/>
<path d="M561.169 662.409L577.635 687.755" stroke="#303030" stroke-miterlimit="10"/>
<path d="M187.057 50.3991L202.167 76.5653" stroke="#303030" stroke-miterlimit="10"/>
<path d="M545.833 671.812L560.943 697.979" stroke="#303030" stroke-miterlimit="10"/>
<path d="M204.259 41.0549L217.978 67.9819" stroke="#303030" stroke-miterlimit="10"/>
<path d="M530.022 680.396L543.741 707.323" stroke="#303030" stroke-miterlimit="10"/>
<path d="M221.925 32.6261L234.217 60.2308" stroke="#303030" stroke-miterlimit="10"/>
<path d="M513.783 688.147L526.075 715.752" stroke="#303030" stroke-miterlimit="10"/>
<path d="M240.007 25.1365L250.837 53.3474" stroke="#303030" stroke-miterlimit="10"/>
<path d="M497.163 695.03L507.993 723.241" stroke="#303030" stroke-miterlimit="10"/>
<path d="M258.458 18.5979L267.802 47.3439" stroke="#303030" stroke-miterlimit="10"/>
<path d="M480.198 701.034L489.542 729.78" stroke="#303030" stroke-miterlimit="10"/>
<path d="M277.229 13.0461L285.052 42.2319" stroke="#303030" stroke-miterlimit="10"/>
<path d="M462.948 706.146L470.771 735.332" stroke="#303030" stroke-miterlimit="10"/>
<path d="M296.262 8.46912L302.551 38.0353" stroke="#303030" stroke-miterlimit="10"/>
<path d="M445.449 710.342L451.738 739.908" stroke="#303030" stroke-miterlimit="10"/>
<path d="M315.51 4.90263L320.241 34.7542" stroke="#303030" stroke-miterlimit="10"/>
<path d="M427.759 713.624L432.49 743.475" stroke="#303030" stroke-miterlimit="10"/>
<path d="M334.923 2.34665L338.074 32.4003" stroke="#303030" stroke-miterlimit="10"/>
<path d="M409.926 715.977L413.077 746.031" stroke="#303030" stroke-miterlimit="10"/>
<path d="M354.432 0.813049L356.013 30.9974" stroke="#303030" stroke-miterlimit="10"/>
<path d="M391.987 717.38L393.568 747.565" stroke="#303030" stroke-miterlimit="10"/>
<path d="M374 0.301849V30.5219" stroke="#303030" stroke-miterlimit="10"/>
<path d="M374 717.856V748.076" stroke="#303030" stroke-miterlimit="10"/>
</svg>
