<svg width="894" height="894" viewBox="0 0 894 894" fill="none" xmlns="http://www.w3.org/2000/svg">
<path d="M423.604 893.382L424.151 883.003" stroke="#303030" stroke-miterlimit="10"/>
<path d="M469.849 10.9967L470.396 0.618195" stroke="#303030" stroke-miterlimit="10"/>
<path d="M400.279 891.551L401.361 881.208" stroke="#303030" stroke-miterlimit="10"/>
<path d="M492.639 12.7918L493.721 2.44899" stroke="#303030" stroke-miterlimit="10"/>
<path d="M377.073 888.496L378.702 878.224" stroke="#303030" stroke-miterlimit="10"/>
<path d="M515.298 15.7758L516.927 5.50429" stroke="#303030" stroke-miterlimit="10"/>
<path d="M354.069 884.228L356.221 874.063" stroke="#303030" stroke-miterlimit="10"/>
<path d="M537.779 19.9367L539.931 9.77219" stroke="#303030" stroke-miterlimit="10"/>
<path d="M331.303 878.771L334.002 868.725" stroke="#303030" stroke-miterlimit="10"/>
<path d="M559.998 25.2745L562.697 15.2289" stroke="#303030" stroke-miterlimit="10"/>
<path d="M308.87 872.125L312.08 862.234" stroke="#303030" stroke-miterlimit="10"/>
<path d="M581.92 31.7655L585.13 21.8745" stroke="#303030" stroke-miterlimit="10"/>
<path d="M286.805 864.315L290.538 854.602" stroke="#303030" stroke-miterlimit="10"/>
<path d="M603.462 39.3978L607.195 29.6851" stroke="#303030" stroke-miterlimit="10"/>
<path d="M265.192 855.351L269.413 845.852" stroke="#303030" stroke-miterlimit="10"/>
<path d="M624.587 48.1476L628.808 38.6488" stroke="#303030" stroke-miterlimit="10"/>
<path d="M244.067 845.282L248.786 836.009" stroke="#303030" stroke-miterlimit="10"/>
<path d="M645.214 57.9911L649.933 48.7182" stroke="#303030" stroke-miterlimit="10"/>
<path d="M223.5 834.119L228.695 825.107" stroke="#303030" stroke-miterlimit="10"/>
<path d="M665.305 68.8927L670.5 59.8813" stroke="#303030" stroke-miterlimit="10"/>
<path d="M203.551 821.886L209.21 813.16" stroke="#303030" stroke-miterlimit="10"/>
<path d="M684.79 80.8404L690.449 72.1144" stroke="#303030" stroke-miterlimit="10"/>
<path d="M184.257 808.63L190.367 800.213" stroke="#303030" stroke-miterlimit="10"/>
<path d="M703.633 93.7868L709.743 85.3699" stroke="#303030" stroke-miterlimit="10"/>
<path d="M165.699 794.388L172.238 786.304" stroke="#303030" stroke-miterlimit="10"/>
<path d="M721.762 107.696L728.301 99.612" stroke="#303030" stroke-miterlimit="10"/>
<path d="M147.902 779.183L154.857 771.455" stroke="#303030" stroke-miterlimit="10"/>
<path d="M739.143 122.545L746.098 114.817" stroke="#303030" stroke-miterlimit="10"/>
<path d="M130.926 763.074L138.273 755.727" stroke="#303030" stroke-miterlimit="10"/>
<path d="M755.727 138.273L763.074 130.926" stroke="#303030" stroke-miterlimit="10"/>
<path d="M114.817 746.098L122.545 739.143" stroke="#303030" stroke-miterlimit="10"/>
<path d="M771.455 154.857L779.183 147.902" stroke="#303030" stroke-miterlimit="10"/>
<path d="M99.612 728.301L107.696 721.762" stroke="#303030" stroke-miterlimit="10"/>
<path d="M786.304 172.238L794.388 165.699" stroke="#303030" stroke-miterlimit="10"/>
<path d="M85.3699 709.743L93.7868 703.633" stroke="#303030" stroke-miterlimit="10"/>
<path d="M800.213 190.367L808.63 184.257" stroke="#303030" stroke-miterlimit="10"/>
<path d="M72.1144 690.449L80.8404 684.79" stroke="#303030" stroke-miterlimit="10"/>
<path d="M813.16 209.21L821.886 203.551" stroke="#303030" stroke-miterlimit="10"/>
<path d="M59.8814 670.5L68.8927 665.305" stroke="#303030" stroke-miterlimit="10"/>
<path d="M825.107 228.695L834.119 223.5" stroke="#303030" stroke-miterlimit="10"/>
<path d="M48.7182 649.933L57.9911 645.214" stroke="#303030" stroke-miterlimit="10"/>
<path d="M836.009 248.786L845.282 244.067" stroke="#303030" stroke-miterlimit="10"/>
<path d="M38.6489 628.808L48.1476 624.587" stroke="#303030" stroke-miterlimit="10"/>
<path d="M845.852 269.413L855.351 265.192" stroke="#303030" stroke-miterlimit="10"/>
<path d="M29.6851 607.195L39.3978 603.462" stroke="#303030" stroke-miterlimit="10"/>
<path d="M854.602 290.538L864.315 286.805" stroke="#303030" stroke-miterlimit="10"/>
<path d="M21.8745 585.13L31.7655 581.92" stroke="#303030" stroke-miterlimit="10"/>
<path d="M862.234 312.08L872.125 308.87" stroke="#303030" stroke-miterlimit="10"/>
<path d="M15.2289 562.697L25.2745 559.998" stroke="#303030" stroke-miterlimit="10"/>
<path d="M868.725 334.002L878.771 331.303" stroke="#303030" stroke-miterlimit="10"/>
<path d="M9.77218 539.931L19.9367 537.779" stroke="#303030" stroke-miterlimit="10"/>
<path d="M874.063 356.221L884.228 354.069" stroke="#303030" stroke-miterlimit="10"/>
<path d="M5.50428 516.927L15.7758 515.298" stroke="#303030" stroke-miterlimit="10"/>
<path d="M878.224 378.702L888.496 377.073" stroke="#303030" stroke-miterlimit="10"/>
<path d="M2.44899 493.721L12.7918 492.639" stroke="#303030" stroke-miterlimit="10"/>
<path d="M881.208 401.361L891.551 400.279" stroke="#303030" stroke-miterlimit="10"/>
<path d="M0.618191 470.396L10.9967 469.849" stroke="#303030" stroke-miterlimit="10"/>
<path d="M883.003 424.151L893.382 423.604" stroke="#303030" stroke-miterlimit="10"/>
<path d="M0 447H10.4023" stroke="#303030" stroke-miterlimit="10"/>
<path d="M883.598 447H894" stroke="#303030" stroke-miterlimit="10"/>
<path d="M0.618191 423.604L10.9967 424.151" stroke="#303030" stroke-miterlimit="10"/>
<path d="M883.003 469.849L893.382 470.396" stroke="#303030" stroke-miterlimit="10"/>
<path d="M2.44899 400.279L12.7918 401.361" stroke="#303030" stroke-miterlimit="10"/>
<path d="M881.208 492.639L891.551 493.721" stroke="#303030" stroke-miterlimit="10"/>
<path d="M5.50428 377.073L15.7758 378.702" stroke="#303030" stroke-miterlimit="10"/>
<path d="M878.224 515.298L888.496 516.927" stroke="#303030" stroke-miterlimit="10"/>
<path d="M9.77218 354.069L19.9367 356.221" stroke="#303030" stroke-miterlimit="10"/>
<path d="M874.063 537.779L884.228 539.931" stroke="#303030" stroke-miterlimit="10"/>
<path d="M15.2289 331.303L25.2745 334.002" stroke="#303030" stroke-miterlimit="10"/>
<path d="M868.725 559.998L878.771 562.697" stroke="#303030" stroke-miterlimit="10"/>
<path d="M21.8745 308.87L31.7655 312.08" stroke="#303030" stroke-miterlimit="10"/>
<path d="M862.234 581.92L872.125 585.13" stroke="#303030" stroke-miterlimit="10"/>
<path d="M29.6851 286.805L39.3978 290.538" stroke="#303030" stroke-miterlimit="10"/>
<path d="M854.602 603.462L864.315 607.195" stroke="#303030" stroke-miterlimit="10"/>
<path d="M38.6489 265.192L48.1476 269.413" stroke="#303030" stroke-miterlimit="10"/>
<path d="M845.852 624.587L855.351 628.808" stroke="#303030" stroke-miterlimit="10"/>
<path d="M48.7182 244.067L57.9911 248.786" stroke="#303030" stroke-miterlimit="10"/>
<path d="M836.009 645.214L845.282 649.933" stroke="#303030" stroke-miterlimit="10"/>
<path d="M59.8814 223.5L68.8927 228.695" stroke="#303030" stroke-miterlimit="10"/>
<path d="M825.107 665.305L834.119 670.5" stroke="#303030" stroke-miterlimit="10"/>
<path d="M72.1144 203.551L80.8404 209.21" stroke="#303030" stroke-miterlimit="10"/>
<path d="M813.16 684.79L821.886 690.449" stroke="#303030" stroke-miterlimit="10"/>
<path d="M85.3699 184.257L93.7868 190.367" stroke="#303030" stroke-miterlimit="10"/>
<path d="M800.213 703.633L808.63 709.743" stroke="#303030" stroke-miterlimit="10"/>
<path d="M99.612 165.699L107.696 172.238" stroke="#303030" stroke-miterlimit="10"/>
<path d="M786.304 721.762L794.388 728.301" stroke="#303030" stroke-miterlimit="10"/>
<path d="M114.817 147.902L122.545 154.857" stroke="#303030" stroke-miterlimit="10"/>
<path d="M771.455 739.143L779.183 746.098" stroke="#303030" stroke-miterlimit="10"/>
<path d="M130.926 130.926L138.273 138.273" stroke="#303030" stroke-miterlimit="10"/>
<path d="M755.727 755.727L763.074 763.074" stroke="#303030" stroke-miterlimit="10"/>
<path d="M147.902 114.817L154.857 122.545" stroke="#303030" stroke-miterlimit="10"/>
<path d="M739.143 771.455L746.098 779.183" stroke="#303030" stroke-miterlimit="10"/>
<path d="M165.699 99.612L172.238 107.696" stroke="#303030" stroke-miterlimit="10"/>
<path d="M721.762 786.304L728.301 794.388" stroke="#303030" stroke-miterlimit="10"/>
<path d="M184.257 85.3699L190.367 93.7868" stroke="#303030" stroke-miterlimit="10"/>
<path d="M703.633 800.213L709.743 808.63" stroke="#303030" stroke-miterlimit="10"/>
<path d="M203.551 72.1144L209.21 80.8404" stroke="#303030" stroke-miterlimit="10"/>
<path d="M684.79 813.16L690.449 821.886" stroke="#303030" stroke-miterlimit="10"/>
<path d="M223.5 59.8813L228.695 68.8927" stroke="#303030" stroke-miterlimit="10"/>
<path d="M665.305 825.107L670.5 834.119" stroke="#303030" stroke-miterlimit="10"/>
<path d="M244.067 48.7182L248.786 57.9911" stroke="#303030" stroke-miterlimit="10"/>
<path d="M645.214 836.009L649.933 845.282" stroke="#303030" stroke-miterlimit="10"/>
<path d="M265.192 38.6488L269.413 48.1476" stroke="#303030" stroke-miterlimit="10"/>
<path d="M624.587 845.852L628.808 855.351" stroke="#303030" stroke-miterlimit="10"/>
<path d="M286.805 29.6851L290.538 39.3978" stroke="#303030" stroke-miterlimit="10"/>
<path d="M603.462 854.602L607.195 864.315" stroke="#303030" stroke-miterlimit="10"/>
<path d="M308.87 21.8745L312.08 31.7655" stroke="#303030" stroke-miterlimit="10"/>
<path d="M581.92 862.234L585.13 872.125" stroke="#303030" stroke-miterlimit="10"/>
<path d="M331.303 15.2289L334.002 25.2745" stroke="#303030" stroke-miterlimit="10"/>
<path d="M559.998 868.725L562.697 878.771" stroke="#303030" stroke-miterlimit="10"/>
<path d="M354.069 9.77219L356.221 19.9367" stroke="#303030" stroke-miterlimit="10"/>
<path d="M537.779 874.063L539.931 884.228" stroke="#303030" stroke-miterlimit="10"/>
<path d="M377.073 5.50429L378.702 15.7758" stroke="#303030" stroke-miterlimit="10"/>
<path d="M515.298 878.224L516.927 888.496" stroke="#303030" stroke-miterlimit="10"/>
<path d="M400.279 2.44899L401.361 12.7918" stroke="#303030" stroke-miterlimit="10"/>
<path d="M492.639 881.208L493.721 891.551" stroke="#303030" stroke-miterlimit="10"/>
<path d="M423.604 0.618195L424.151 10.9967" stroke="#303030" stroke-miterlimit="10"/>
<path d="M469.849 883.003L470.396 893.382" stroke="#303030" stroke-miterlimit="10"/>
<path d="M447 0V10.4023" stroke="#303030" stroke-miterlimit="10"/>
<path d="M447 883.598V894" stroke="#303030" stroke-miterlimit="10"/>
</svg>
