<svg width="67" height="47" viewBox="0 0 67 47" fill="none" xmlns="http://www.w3.org/2000/svg">
<path d="M6.18661 43.0819C6.84813 43.4025 7.59058 43.5822 8.375 43.5822H58.625C59.4094 43.5822 60.1519 43.4025 60.8134 43.0819L41.0195 24.4524L34.5648 29.768C33.9463 30.2773 33.0537 30.2773 32.4352 29.768L25.9805 24.4524L6.18661 43.0819ZM3.82937 40.7019C3.84488 40.6861 3.86076 40.6706 3.87702 40.6553L23.3736 22.3055L3.9602 6.31798C3.91787 6.28312 3.87769 6.24662 3.83967 6.20864C3.52578 6.8646 3.35 7.59927 3.35 8.375V38.5572C3.35 39.3244 3.52193 40.0514 3.82937 40.7019V40.7019ZM63.1706 40.7019C63.4781 40.0514 63.65 39.3244 63.65 38.5572V8.375C63.65 7.59927 63.4742 6.8646 63.1603 6.20864C63.1223 6.24662 63.0821 6.28312 63.0398 6.31798L43.6264 22.3055L63.123 40.6553C63.1392 40.6706 63.1551 40.6861 63.1706 40.7019ZM60.7838 3.83607C60.1298 3.52443 59.3978 3.35 58.625 3.35H8.375C7.60224 3.35 6.87022 3.52443 6.21617 3.83607L33.5 26.3051L60.7838 3.83607ZM8.375 0H58.625C63.2504 0 67 3.74961 67 8.375V38.5572C67 43.1826 63.2504 46.9322 58.625 46.9322H8.375C3.74961 46.9322 0 43.1826 0 38.5572V8.375C0 3.74961 3.74961 0 8.375 0V0Z" fill="#989898"/>
</svg>
