<svg width="63" height="63" viewBox="0 0 63 63" fill="none" xmlns="http://www.w3.org/2000/svg">
<path d="M39.0297 3.47366C39.074 3.30798 39.1505 3.15266 39.2548 3.01655C39.3591 2.88044 39.4892 2.76621 39.6377 2.68038C39.7861 2.59456 39.9501 2.53882 40.1201 2.51635C40.2901 2.49388 40.4629 2.50511 40.6285 2.54942C45.2776 3.79962 49.5166 6.24952 52.9208 9.65372C56.325 13.0579 58.7749 17.2969 60.0251 21.946C60.0694 22.1116 60.0806 22.2844 60.0581 22.4544C60.0357 22.6244 59.9799 22.7883 59.8941 22.9368C59.8083 23.0853 59.6941 23.2154 59.5579 23.3197C59.4218 23.424 59.2665 23.5005 59.1009 23.5448C58.9352 23.5891 58.7624 23.6004 58.5924 23.5779C58.4224 23.5554 58.2585 23.4997 58.11 23.4138C57.9615 23.328 57.8314 23.2138 57.7271 23.0777C57.6228 22.9416 57.5463 22.7863 57.502 22.6206C56.371 18.4145 54.1546 14.5795 51.0748 11.4997C47.995 8.41989 44.16 6.20349 39.9539 5.0725C39.6193 4.98303 39.334 4.76432 39.1607 4.46449C38.9874 4.16465 38.9402 3.80824 39.0297 3.47366V3.47366ZM37.2494 15.1658C39.6845 15.8206 41.9047 17.1038 43.6877 18.8868C45.4707 20.6698 46.7539 22.89 47.4087 25.3251C47.453 25.4907 47.5295 25.6461 47.6338 25.7822C47.7381 25.9183 47.8683 26.0325 48.0167 26.1183C48.1652 26.2041 48.3291 26.2599 48.4991 26.2824C48.6691 26.3048 48.8419 26.2936 49.0076 26.2493C49.1732 26.205 49.3286 26.1285 49.4647 26.0242C49.6008 25.9199 49.715 25.7898 49.8008 25.6413C49.8866 25.4928 49.9424 25.3289 49.9649 25.1589C49.9873 24.9889 49.9761 24.8161 49.9318 24.6505C49.1579 21.7724 47.6412 19.1482 45.5338 17.0407C43.4264 14.9333 40.8021 13.4166 37.924 12.6427C37.7584 12.5984 37.5856 12.5872 37.4156 12.6097C37.2456 12.6321 37.0817 12.6879 36.9332 12.7737C36.7847 12.8595 36.6546 12.9737 36.5503 13.1098C36.446 13.246 36.3695 13.4013 36.3252 13.5669C36.2809 13.7326 36.2697 13.9054 36.2921 14.0754C36.3146 14.2454 36.3704 14.4093 36.4562 14.5578C36.542 14.7063 36.6562 14.8364 36.7923 14.9407C36.9284 15.045 37.0838 15.1215 37.2494 15.1658H37.2494ZM62.5466 47.7459C62.0197 51.8416 60.0198 55.6054 56.9205 58.3343C53.8212 61.0632 49.8344 62.5704 45.705 62.5745C20.5032 62.5745 0 42.0713 0 16.8695C0.00406877 12.7401 1.51128 8.7534 4.24008 5.6541C6.96888 2.55479 10.7326 0.554877 14.8283 0.0279291C15.6696 -0.0729854 16.5211 0.101175 17.2552 0.524365C17.9894 0.947555 18.5668 1.59703 18.9011 2.37567L25.4601 17.6793C25.7152 18.273 25.8192 18.9207 25.7628 19.5645C25.7064 20.2083 25.4913 20.828 25.1368 21.3683L19.7058 29.6667C19.5828 29.8508 19.5094 30.0635 19.4928 30.2843C19.4761 30.5051 19.5168 30.7265 19.6108 30.9269H19.6111C22.1956 36.1994 26.4706 40.4551 31.7547 43.0157C31.9564 43.1091 32.1788 43.1487 32.4003 43.1305C32.6218 43.1123 32.8348 43.0369 33.0185 42.9117L41.1916 37.4616C41.7333 37.0991 42.3572 36.878 43.0063 36.8183C43.6555 36.7587 44.3092 36.8625 44.908 37.1202L60.1989 43.6734C60.9775 44.0077 61.6269 44.585 62.0501 45.3191C62.4733 46.0532 62.6475 46.9046 62.5466 47.7459ZM59.1697 46.074L43.8795 39.5208C43.6798 39.435 43.4618 39.4004 43.2454 39.4203C43.029 39.4402 42.8209 39.5139 42.6402 39.6347L34.4672 45.0848C33.9051 45.4611 33.2551 45.685 32.5805 45.7346C31.906 45.7843 31.2301 45.6579 30.6191 45.3679C24.8079 42.5516 20.1066 37.8714 17.264 32.0731L17.2643 32.0734C16.9726 31.466 16.8429 30.7935 16.8878 30.1212C16.9327 29.4489 17.1507 28.7997 17.5207 28.2365L22.9516 19.9381C23.0698 19.7579 23.1416 19.5512 23.1604 19.3365C23.1792 19.1218 23.1445 18.9058 23.0594 18.7078L16.5005 3.40479C16.4012 3.17081 16.2357 2.97091 16.0244 2.82961C15.8131 2.68831 15.5652 2.61176 15.311 2.60936C15.2591 2.60932 15.2072 2.61262 15.1557 2.61924C11.6906 3.06534 8.50636 4.7577 6.1979 7.38016C3.88945 10.0026 2.61467 13.3758 2.61171 16.8695C2.61171 40.6313 21.9432 59.9628 45.705 59.9628C49.1988 59.9598 52.572 58.685 55.1944 56.3765C57.8169 54.068 59.5092 50.8837 59.9553 47.4185C59.9871 47.1396 59.9278 46.8579 59.7862 46.6156C59.6446 46.3732 59.4283 46.1832 59.1697 46.074V46.074Z" fill="#989898"/>
</svg>
