<svg width="557" height="658" viewBox="0 0 557 658" fill="none" xmlns="http://www.w3.org/2000/svg">
<path d="M302.478 6.59621C343.951 11.9682 385.485 18.837 422.272 41.6886C460.207 65.253 494.139 98.1543 517.569 140.198C541.1 182.423 553.817 232.098 556.407 282.396C558.936 331.486 547.124 379.323 532.248 425.373C517.632 470.616 498.912 514.039 470.3 548.949C441.458 584.139 405.275 609.161 366.607 627.483C326.948 646.275 285.014 661.526 242.461 656.922C199.694 652.295 160.873 627.906 124.396 601.277C87.9752 574.688 51.156 545.398 30.0133 501.824C19.5844 480.33 14.6367 456.689 11.8118 432.252C10.0329 416.864 9.09693 401.177 8.1624 385.514C7.61224 376.293 7.06259 367.081 6.34179 357.943C5.68864 349.663 4.90619 341.356 4.12316 333.042C0.330776 292.778 -3.47536 252.368 7.3267 214.203C20.1822 168.783 49.7614 133.586 78.5303 99.353C79.0307 98.7575 79.5308 98.1624 80.0307 97.5675C80.6943 96.7776 81.3583 95.9869 82.0227 95.1957C110.723 61.0188 140.212 25.9034 178.768 10.1367C215.516 -4.89114 255.176 0.351165 294.096 5.4957C296.895 5.86556 299.689 6.23492 302.478 6.59621Z" stroke="#D7B8A6" stroke-opacity="0.4" stroke-width="0.5"/>
</svg>
