<svg width="1087" height="702" viewBox="0 0 1087 702" fill="none" xmlns="http://www.w3.org/2000/svg">
<path d="M590.339 7.02216C671.276 12.7535 752.398 20.085 824.252 44.4864C898.324 69.6407 964.568 104.758 1010.3 149.622C1056.23 194.673 1081.03 247.657 1086.08 301.29C1091.01 353.627 1067.98 404.64 1038.94 453.772C1010.43 502.032 973.895 548.363 918.041 585.618C861.733 623.176 791.086 649.885 715.59 669.441C638.186 689.492 556.277 705.783 473.13 700.866C389.571 695.924 313.749 669.875 242.567 641.467C171.479 613.096 99.5921 581.833 58.3198 535.331C37.9708 512.404 28.321 487.193 22.8109 461.135C20.0555 448.105 18.3357 434.865 16.8304 421.591C16.4405 418.153 16.065 414.712 15.6895 411.273C14.6159 401.436 13.5429 391.606 12.1372 381.864C10.8618 373.025 9.33442 364.161 7.80611 355.293C4.87014 338.255 1.93088 321.199 0.768676 304.26C-0.997408 278.521 1.3473 253.106 14.0508 228.569C26.8066 203.931 48.0111 182.102 73.1698 161.788C97.4613 142.174 125.422 123.985 152.995 106.049C153.979 105.409 154.962 104.769 155.945 104.13C157.249 103.281 158.554 102.432 159.859 101.582C215.845 65.135 273.429 27.648 348.74 10.8116C420.543 -5.24075 498.031 0.359172 573.965 5.84674C579.432 6.24184 584.891 6.63635 590.339 7.02216Z" stroke="#D7B8A6" stroke-opacity="0.2" stroke-width="0.5"/>
</svg>
